<?xml version="1.0" standalone="no"?>
<!DOCTYPE svg PUBLIC "-//W3C//DTD SVG 20010904//EN"
 "http://www.w3.org/TR/2001/REC-SVG-20010904/DTD/svg10.dtd">
<svg version="1.0" xmlns="http://www.w3.org/2000/svg"
 width="4000px" height="100px" viewBox="0 0 1481.000000 897.000000"
 preserveAspectRatio="xMidYMid meet">
<metadata>
</metadata>
<g transform="translate(0.000000,897.000000) scale(0.100000,-0.100000)"
fill="#000000" stroke="none">
<path d="M6450 8870 c-384 -35 -803 -145 -1175 -310 -833 -370 -1523 -1069
-1887 -1911 -170 -394 -264 -768 -299 -1191 -15 -175 -6 -614 16 -778 117
-886 538 -1698 1186 -2286 505 -458 1095 -761 1742 -895 286 -59 432 -73 762
-73 315 0 457 13 720 65 957 189 1810 760 2359 1577 647 965 809 2166 442
3267 -402 1203 -1372 2113 -2591 2430 -145 37 -296 67 -461 91 -128 18 -664
27 -814 14z m750 -250 c454 -64 778 -163 1154 -352 536 -269 995 -678 1337
-1193 118 -177 284 -505 359 -707 256 -694 284 -1477 80 -2185 -211 -728 -653
-1368 -1262 -1826 -738 -554 -1656 -788 -2574 -657 -604 86 -1180 337 -1669
726 -142 114 -427 398 -539 539 -415 522 -665 1123 -748 1795 -20 161 -17 672
5 830 102 725 385 1350 850 1877 603 681 1432 1095 2342 1167 93 7 589 -3 665
-14z"/>
<path d="M6909 7671 c-16 -16 -30 -38 -30 -48 -2 -28 -15 -108 -39 -253 -20
-119 -32 -196 -34 -220 -2 -14 -6 -40 -10 -58 -5 -19 -9 -43 -11 -55 -4 -27
-22 -141 -37 -227 -6 -36 -12 -74 -13 -85 -1 -11 -6 -40 -10 -65 -5 -25 -8
-48 -7 -53 1 -4 -2 -27 -7 -50 -15 -64 -49 -266 -66 -387 -7 -51 -21 -138 -45
-280 -24 -140 -28 -167 -29 -192 -1 -10 -5 -18 -10 -18 -11 0 -114 156 -271
410 -72 118 -144 231 -159 250 -14 19 -100 154 -190 300 -89 146 -175 281
-190 300 -14 19 -105 162 -201 318 -97 155 -194 303 -216 327 -47 52 -78 58
-121 21 l-27 -24 40 -2439 c31 -1945 42 -2444 52 -2456 34 -41 127 -27 139 22
4 14 -10 1045 -30 2290 -21 1245 -36 2265 -34 2267 1 2 45 -65 96 -149 52 -84
106 -168 121 -187 15 -19 98 -150 185 -290 86 -140 169 -271 183 -290 15 -19
105 -161 200 -315 95 -154 181 -289 191 -300 10 -11 57 -84 106 -163 l87 -143
-8 -57 c-4 -31 -9 -61 -9 -67 -1 -5 -5 -32 -10 -60 -4 -27 -9 -57 -10 -65 -12
-73 -39 -238 -54 -325 -6 -33 -13 -76 -15 -95 -3 -19 -10 -64 -16 -100 -21
-124 -31 -185 -35 -225 -3 -21 -7 -47 -10 -56 -3 -9 -8 -32 -10 -50 -8 -60
-24 -162 -35 -224 -15 -80 -31 -184 -35 -215 -3 -30 -31 -204 -44 -275 -9 -47
-21 -116 -27 -160 -4 -30 -23 -152 -34 -215 -11 -64 -31 -188 -34 -210 -2 -8
-6 -34 -10 -58 -4 -23 -9 -52 -11 -65 -12 -89 -25 -166 -30 -179 -8 -20 21
-85 44 -97 28 -16 89 -1 110 25 16 21 23 46 37 139 5 38 25 160 34 215 20 119
32 196 34 220 2 14 6 40 10 58 5 19 9 43 11 55 3 24 18 116 36 225 6 37 13 78
14 92 5 41 30 193 55 340 6 36 13 76 15 90 2 14 6 41 10 60 3 19 8 46 10 60 5
39 31 200 54 335 6 33 13 76 15 95 3 19 14 94 27 165 12 72 23 142 24 156 2
15 6 42 11 60 4 19 8 43 9 54 1 11 5 43 10 72 l7 51 34 -44 c19 -24 99 -150
179 -280 80 -129 173 -276 208 -327 34 -51 130 -201 212 -335 83 -134 157
-251 166 -260 8 -9 91 -140 183 -290 93 -151 179 -286 191 -300 12 -15 96
-146 185 -292 197 -319 247 -397 261 -406 23 -14 82 -6 102 15 l22 21 -28
1698 c-30 1823 -44 2534 -55 2951 -8 259 -8 264 -31 282 -28 23 -69 24 -99 3
-21 -15 -22 -21 -22 -186 0 -94 14 -987 30 -1984 17 -998 29 -1865 28 -1927
l-3 -112 -19 75 c-10 41 -21 80 -25 85 -3 6 -6 15 -8 20 -5 24 -13 62 -19 90
-3 17 -9 35 -12 40 -4 6 -7 15 -9 20 -3 17 -13 54 -18 73 -3 9 -34 127 -70
262 -36 135 -69 252 -72 260 -9 24 -20 63 -29 110 -2 14 -7 32 -11 40 -7 17
-10 26 -17 58 -3 12 -8 30 -11 40 -3 9 -45 166 -95 347 -50 182 -92 338 -95
348 -3 9 -7 26 -10 37 -3 11 -7 28 -10 38 -4 14 -172 629 -191 697 -3 11 -7
31 -10 45 -3 14 -10 41 -16 60 -7 19 -13 40 -14 45 -2 6 -5 19 -8 30 -6 21
-153 558 -161 588 -6 22 -14 52 -19 77 -3 11 -7 24 -10 28 -3 5 -7 19 -10 33
-7 33 -160 596 -170 624 -2 6 -7 24 -11 42 -15 64 -115 84 -166 34z m149 -633
c29 -106 54 -201 57 -210 3 -10 7 -27 10 -38 3 -11 7 -28 10 -37 3 -10 45
-166 95 -348 50 -181 92 -338 95 -347 7 -25 15 -59 21 -87 3 -14 7 -28 10 -33
3 -4 7 -16 9 -25 3 -15 151 -559 170 -625 6 -23 14 -53 19 -78 3 -11 7 -24 10
-28 3 -5 7 -19 10 -33 8 -36 106 -402 113 -419 8 -21 11 -31 18 -65 3 -16 13
-55 22 -85 19 -64 20 -67 27 -97 3 -13 8 -31 11 -40 3 -10 41 -153 85 -318 45
-165 84 -307 87 -315 3 -8 7 -21 9 -29 10 -51 28 -118 35 -131 8 -15 99 -356
99 -369 0 -3 -11 11 -24 31 -12 21 -30 45 -38 55 -9 10 -91 140 -183 288 -92
149 -179 286 -193 305 -15 19 -100 154 -190 300 -90 146 -176 281 -191 300
-15 19 -101 154 -190 300 -90 146 -180 288 -201 315 -74 100 -164 258 -162
284 3 35 14 104 43 276 5 33 12 78 14 100 3 21 7 47 10 56 3 9 7 30 10 45 5
39 24 157 35 224 18 107 32 195 35 220 4 31 18 118 45 280 12 69 23 136 25
150 6 38 25 159 35 220 13 79 30 184 30 193 0 4 4 7 8 7 4 0 31 -87 60 -192z"/>
<path d="M848 1119 c-119 -13 -248 -110 -307 -231 -110 -225 -24 -505 189
-612 342 -171 702 202 553 573 -78 194 -235 292 -435 270z m169 -141 c52 -25
117 -94 146 -156 17 -37 21 -66 22 -142 0 -112 -18 -161 -86 -235 -63 -68
-109 -89 -194 -90 -60 0 -78 4 -125 31 -65 37 -110 92 -140 171 -28 74 -25
193 7 265 69 154 228 221 370 156z"/>
<path d="M8200 720 l0 -410 168 0 c192 0 254 12 336 64 107 69 158 168 164
324 5 129 -20 219 -82 296 -89 108 -175 136 -418 136 l-168 0 0 -410z m400
276 c48 -25 98 -74 120 -117 42 -81 44 -233 3 -313 -22 -44 -72 -94 -118 -119
-33 -18 -61 -22 -167 -25 l-128 -4 0 302 0 302 128 -4 c98 -3 135 -8 162 -22z"/>
<path d="M9260 720 l0 -410 280 0 280 0 0 55 0 55 -220 0 -220 0 0 130 0 130
190 0 190 0 0 50 0 50 -190 0 -190 0 0 120 0 120 215 0 215 0 0 55 0 55 -275
0 -275 0 0 -410z"/>
<path d="M10340 1115 c-60 -19 -124 -74 -145 -127 -21 -53 -22 -145 -2 -184
34 -66 92 -97 256 -139 107 -27 168 -52 190 -78 22 -28 23 -80 2 -114 -56 -89
-283 -77 -399 22 l-40 35 -20 -27 c-46 -67 -46 -69 4 -107 122 -93 349 -120
474 -56 156 79 161 298 9 376 -28 14 -104 39 -167 55 -177 46 -204 63 -204
134 0 90 87 135 220 114 65 -10 97 -25 143 -66 l26 -24 32 50 31 51 -41 30
c-69 50 -138 70 -237 69 -48 0 -107 -7 -132 -14z"/>
<path d="M11150 720 l0 -410 60 0 60 0 0 410 0 410 -60 0 -60 0 0 -410z"/>
<path d="M11919 1116 c-94 -33 -191 -129 -229 -224 -31 -78 -38 -216 -16 -294
21 -69 80 -164 130 -204 129 -107 307 -116 437 -24 l29 21 0 -40 0 -41 55 0
55 0 0 210 0 210 -140 0 -140 0 0 -50 0 -50 85 0 85 0 0 -48 c0 -42 -4 -52
-37 -84 -107 -104 -265 -106 -366 -4 -124 124 -122 347 5 462 54 48 99 66 170
65 91 0 166 -45 214 -126 11 -19 19 -16 97 37 16 10 -50 104 -96 138 -23 17
-64 37 -91 45 -61 18 -198 19 -247 1z"/>
<path d="M12770 720 l0 -410 60 0 60 0 2 295 3 294 235 -294 235 -295 48 0 47
0 0 410 0 410 -55 0 -55 0 -2 -303 -3 -303 -240 303 -240 302 -47 1 -48 0 0
-410z"/>
<path d="M14027 1113 c-106 -40 -156 -110 -157 -221 0 -128 53 -173 271 -227
171 -43 223 -84 204 -161 -30 -119 -278 -124 -413 -8 l-41 35 -30 -48 c-16
-26 -27 -51 -25 -55 3 -4 25 -21 48 -38 164 -112 419 -114 529 -4 88 87 73
249 -29 316 -23 15 -83 39 -135 53 -193 53 -210 59 -234 81 -19 18 -25 33 -25
66 0 81 51 120 159 120 88 1 138 -14 189 -57 l41 -36 30 48 c28 44 29 49 14
66 -9 9 -46 32 -82 50 -59 29 -76 32 -166 35 -75 1 -112 -2 -148 -15z"/>
<path d="M1730 681 l0 -441 65 0 65 0 2 316 3 315 253 -315 252 -316 55 0 55
0 0 440 0 440 -65 0 -65 0 -2 -324 -3 -324 -256 321 -255 322 -52 3 -52 3 0
-440z"/>
<path d="M2997 698 c-97 -233 -179 -431 -183 -440 -5 -16 1 -18 62 -18 l69 0
51 128 52 127 174 3 174 2 53 -130 53 -130 69 0 c62 0 68 2 61 18 -4 10 -86
208 -182 440 l-175 422 -51 0 -50 0 -177 -422z m230 -86 c-71 -1 -132 -1 -134
1 -2 3 26 77 63 166 l67 162 67 -163 67 -163 -130 -3z"/>
<path d="M3970 681 l0 -441 65 0 65 0 0 155 0 155 103 0 104 0 99 -155 99
-155 73 0 74 0 -14 23 c-183 283 -192 300 -173 311 40 24 87 71 112 114 22 36
28 61 31 128 4 71 1 89 -20 135 -28 60 -84 119 -138 146 -30 15 -69 18 -257
21 l-223 3 0 -440z m441 296 c50 -33 82 -100 75 -160 -6 -56 -34 -107 -74
-133 -22 -15 -53 -19 -169 -22 l-143 -4 0 171 0 171 139 0 c127 0 141 -2 172
-23z"/>
<path d="M5261 1098 c-5 -13 -86 -207 -180 -432 -94 -224 -171 -412 -171 -417
0 -6 29 -9 66 -7 l67 3 51 128 51 127 175 -2 175 -3 51 -125 52 -125 66 -3
c36 -2 66 1 66 5 0 5 -80 202 -178 438 l-179 430 -51 3 c-47 3 -53 1 -61 -20z
m121 -310 c32 -79 60 -151 64 -160 6 -17 -4 -18 -125 -18 -72 0 -131 3 -131 8
0 13 124 312 130 312 3 0 31 -64 62 -142z"/>
</g>
</svg>
