<?xml version="1.0" standalone="no"?>
<!DOCTYPE svg PUBLIC "-//W3C//DTD SVG 20010904//EN"
 "http://www.w3.org/TR/2001/REC-SVG-20010904/DTD/svg10.dtd">
<svg version="1.0" xmlns="http://www.w3.org/2000/svg"
 width="1494.000000pt" height="1494.000000pt" viewBox="0 0 1494.000000 1494.000000"
 preserveAspectRatio="xMidYMid meet">
<metadata>
Created by potrace 1.11, written by Peter Selinger 2001-2013
</metadata>
<g transform="translate(0.000000,1494.000000) scale(0.100000,-0.100000)"
fill="#000000" stroke="none">
<path d="M7207 11974 c-3 -4 -37 -8 -74 -10 -37 -1 -88 -5 -113 -8 -25 -4 -62
-7 -82 -9 -21 -1 -38 -4 -38 -7 0 -3 -17 -6 -38 -7 -37 -1 -107 -10 -107 -13
0 -1 -14 -3 -32 -5 -17 -2 -40 -8 -51 -14 -11 -6 -22 -8 -25 -5 -3 3 -41 -2
-84 -11 -43 -9 -89 -19 -103 -22 -46 -8 -55 -10 -70 -16 -8 -3 -28 -9 -45 -13
-40 -10 -45 -11 -47 -13 -2 -2 -14 -5 -28 -8 -31 -6 -41 -9 -60 -16 -28 -10
-95 -30 -98 -28 -1 0 -18 -6 -38 -14 -20 -8 -40 -12 -45 -9 -5 3 -9 1 -9 -3 0
-5 -21 -15 -47 -22 -27 -8 -52 -17 -58 -20 -5 -3 -12 -6 -15 -6 -3 -1 -21 -8
-41 -17 -20 -9 -47 -19 -60 -23 -13 -4 -48 -18 -77 -31 -29 -13 -57 -24 -62
-24 -6 0 -10 -4 -10 -10 0 -5 -3 -9 -7 -9 -5 1 -11 0 -15 -1 -5 -1 -11 -3 -15
-4 -5 -1 -29 -12 -55 -24 -26 -12 -51 -22 -57 -22 -5 0 -11 -3 -13 -7 -1 -5
-41 -27 -88 -51 -117 -59 -194 -103 -198 -114 -2 -4 -8 -6 -13 -2 -5 3 -9 0
-9 -5 0 -6 -6 -11 -13 -11 -7 0 -49 -25 -94 -55 -46 -30 -87 -55 -92 -55 -5 0
-11 -4 -13 -8 -1 -5 -32 -28 -68 -52 -36 -24 -74 -52 -84 -62 -11 -10 -23 -18
-26 -18 -4 0 -16 -8 -28 -18 -11 -10 -33 -27 -47 -38 -15 -10 -36 -27 -48 -38
-12 -10 -37 -30 -56 -45 -19 -14 -46 -37 -61 -51 -14 -14 -70 -65 -124 -115
-54 -49 -111 -101 -125 -116 -64 -65 -203 -218 -226 -249 -14 -19 -25 -30 -25
-24 0 5 -9 -4 -19 -20 -27 -40 -62 -84 -88 -108 -13 -12 -23 -27 -23 -34 0 -7
-6 -17 -13 -21 -16 -11 -97 -120 -97 -132 0 -5 -7 -12 -16 -15 -9 -4 -14 -9
-11 -12 5 -5 -10 -28 -43 -62 -8 -9 -15 -18 -15 -21 -1 -3 -12 -24 -26 -46
-15 -22 -26 -44 -27 -49 0 -5 -4 -12 -9 -15 -10 -7 -63 -88 -63 -96 0 -4 -7
-13 -15 -22 -8 -8 -13 -19 -10 -24 4 -5 1 -9 -4 -9 -6 0 -11 -7 -11 -15 0 -9
-7 -18 -15 -21 -8 -4 -13 -10 -10 -14 3 -5 1 -11 -5 -15 -6 -4 -8 -11 -5 -16
4 -5 2 -9 -3 -9 -4 0 -21 -27 -37 -60 -16 -33 -32 -60 -36 -60 -4 0 -6 -6 -6
-12 1 -7 -18 -53 -42 -103 -45 -94 -63 -137 -61 -144 1 -2 -3 -7 -9 -10 -6 -4
-12 -16 -14 -26 -2 -11 -12 -38 -22 -60 -10 -22 -19 -43 -20 -47 -2 -5 -3 -9
-5 -10 -1 -2 -3 -10 -5 -18 -2 -8 -11 -33 -21 -55 -10 -22 -17 -43 -16 -47 1
-4 -3 -20 -10 -35 -6 -15 -12 -30 -13 -33 -1 -3 -4 -12 -8 -20 -11 -28 -38
-117 -42 -138 -2 -12 -7 -27 -10 -32 -3 -5 -8 -18 -10 -28 -1 -9 -9 -37 -16
-62 -14 -51 -19 -75 -21 -107 -1 -13 -6 -23 -11 -23 -5 0 -6 -7 -3 -16 4 -9 2
-22 -3 -28 -8 -11 -30 -116 -46 -226 -2 -14 -6 -35 -8 -46 -6 -26 -29 -205
-32 -254 -2 -19 -4 -35 -5 -35 -14 0 -20 -689 -6 -719 7 -15 6 -17 -4 -11 -10
6 -11 4 -4 -6 4 -8 10 -36 11 -64 2 -27 6 -70 8 -95 3 -25 8 -67 11 -95 3 -27
8 -57 11 -65 3 -8 7 -31 9 -50 3 -33 6 -54 18 -125 4 -27 28 -143 42 -205 22
-100 48 -197 55 -206 5 -6 6 -14 2 -17 -3 -4 -1 -13 5 -20 7 -8 9 -17 5 -20
-3 -4 -1 -12 4 -19 5 -7 16 -35 23 -63 7 -27 16 -54 19 -60 3 -5 6 -13 7 -17
1 -5 3 -10 4 -13 1 -3 3 -8 4 -12 11 -44 41 -123 48 -123 4 0 5 -6 2 -14 -3
-8 0 -17 5 -21 6 -3 9 -11 6 -16 -4 -5 -1 -9 4 -9 6 0 10 -3 9 -7 -1 -5 4 -21
10 -36 7 -16 12 -35 12 -43 0 -8 5 -14 10 -14 6 0 10 -4 10 -9 0 -5 8 -26 17
-47 9 -22 17 -41 18 -44 1 -3 10 -23 20 -45 10 -22 19 -42 20 -45 2 -8 75
-151 108 -210 16 -30 37 -68 46 -85 9 -16 22 -36 29 -43 7 -8 10 -18 7 -23 -4
-5 -1 -9 4 -9 6 0 11 -7 11 -15 0 -8 5 -15 10 -15 6 0 10 -5 10 -11 0 -12 59
-101 74 -111 6 -4 8 -8 3 -8 -8 0 38 -74 65 -104 10 -11 18 -24 18 -29 0 -6 8
-16 17 -23 10 -7 18 -16 18 -21 0 -8 39 -60 87 -116 15 -18 28 -35 28 -39 0
-4 10 -18 23 -30 12 -13 40 -46 62 -73 22 -27 54 -65 70 -84 49 -58 365 -372
434 -431 35 -30 72 -64 82 -74 11 -11 19 -16 19 -12 0 4 12 -4 28 -18 33 -32
121 -100 187 -147 131 -92 155 -109 160 -109 3 0 11 -5 18 -10 30 -26 116 -77
121 -72 3 3 6 1 6 -5 0 -5 21 -21 48 -34 26 -13 49 -27 52 -30 7 -9 293 -154
400 -203 47 -21 126 -54 175 -73 50 -18 98 -38 108 -44 10 -5 22 -7 27 -4 4 3
10 2 12 -2 4 -9 141 -56 163 -56 8 0 15 -3 15 -7 0 -4 6 -7 13 -7 12 -1 119
-30 147 -41 20 -7 24 -8 110 -27 101 -22 104 -23 110 -25 3 -1 9 -2 14 -1 5 1
16 -1 25 -5 14 -6 43 -11 104 -17 9 -1 17 -4 17 -7 0 -3 10 -6 23 -7 12 -1 42
-5 67 -9 25 -4 59 -8 75 -10 17 -1 50 -6 75 -9 25 -4 64 -7 87 -8 24 -1 43 -6
43 -11 0 -6 5 -5 12 2 6 6 18 8 27 3 9 -4 47 -8 84 -8 37 0 71 -3 74 -7 3 -3
12 -1 20 5 10 9 13 8 13 0 0 -7 4 -10 9 -7 5 4 12 0 14 -6 4 -10 6 -9 6 1 1
11 4 11 18 0 14 -12 15 -12 9 -1 -7 11 -4 12 10 4 28 -15 36 -15 45 0 7 10 9
10 9 0 0 -9 19 -12 75 -10 41 2 75 6 75 11 0 4 5 7 11 7 5 0 8 -4 5 -8 -3 -5
1 -9 9 -9 8 0 12 4 9 9 -3 4 2 8 11 8 10 0 13 -5 9 -12 -6 -10 -4 -10 7 -2 18
15 79 23 79 12 0 -5 4 -7 9 -4 4 3 46 8 92 11 46 3 102 8 124 11 22 3 56 7 75
9 71 8 126 15 180 25 56 10 105 18 150 24 14 2 25 5 25 6 0 2 12 5 55 13 21 4
106 24 183 43 99 24 271 77 327 101 8 3 20 7 25 8 6 1 13 3 18 5 4 1 10 3 15
4 19 4 158 61 167 68 5 4 15 8 22 8 7 0 36 11 65 25 28 14 58 25 65 25 7 0 13
5 13 10 0 6 6 10 13 10 15 0 258 120 280 138 7 7 17 9 20 5 4 -3 7 -1 7 6 0 7
5 9 10 6 6 -3 10 -2 10 3 0 10 70 48 83 44 4 -1 7 2 7 6 0 5 20 18 44 31 25
12 46 25 48 29 3 8 91 62 121 74 9 4 17 12 17 18 0 5 7 10 15 10 8 0 15 5 15
10 0 6 6 10 14 10 8 0 16 3 18 8 4 10 78 64 78 58 0 -4 8 2 18 12 10 9 31 27
48 39 16 12 40 30 53 40 13 10 34 28 47 40 13 12 32 27 42 35 27 19 133 112
208 183 123 117 150 144 216 217 124 135 139 153 219 253 45 55 88 109 97 121
28 33 62 83 62 88 0 6 24 37 48 61 6 8 12 16 12 19 0 4 15 28 33 54 18 26 46
70 62 97 16 28 35 56 42 63 7 7 13 19 13 27 0 7 3 15 8 17 4 2 15 19 24 38 10
19 27 51 39 70 32 55 53 95 54 101 0 11 40 84 48 90 5 3 8 8 6 10 -3 5 32 81
40 89 4 3 8 14 9 25 2 11 9 23 14 26 6 4 8 11 4 17 -3 6 2 15 11 21 10 5 17
12 16 15 -4 11 9 66 16 66 4 0 13 20 20 45 7 25 17 45 22 45 5 0 6 7 3 15 -4
8 -1 15 5 15 6 0 10 3 9 8 -4 11 56 187 65 190 4 2 4 8 1 13 -3 6 -1 15 4 22
6 7 11 15 11 19 6 41 15 68 22 68 5 0 6 7 3 15 -4 8 -1 21 5 29 6 7 8 16 5 19
-3 3 -2 12 2 19 5 7 9 18 10 23 5 29 10 41 19 47 6 5 5 8 -4 8 -9 0 -10 4 -4
13 6 6 13 26 17 42 3 17 9 41 12 55 3 14 6 33 7 43 1 9 4 17 8 17 3 0 5 11 4
25 -2 14 0 25 4 25 4 0 8 12 8 28 1 15 9 68 18 117 9 50 19 108 21 130 3 22 7
58 9 80 3 22 7 58 9 80 2 22 7 72 11 110 4 39 7 95 7 125 0 30 5 61 11 69 9
11 9 13 0 8 -8 -5 -11 0 -10 13 1 11 6 20 12 20 5 0 3 5 -5 10 -8 5 -10 10 -4
10 16 0 18 150 2 150 -9 0 -8 4 2 10 12 8 13 11 1 19 -11 7 -11 9 0 14 12 5
12 6 0 6 -11 1 -11 4 0 18 10 11 10 14 2 9 -7 -4 -13 -3 -13 1 0 5 6 15 13 22
9 10 9 12 0 7 -9 -5 -12 14 -13 71 -1 69 -5 138 -9 138 -2 0 -12 135 -13 183
-1 17 -4 32 -8 32 -3 0 -6 17 -7 38 0 20 -3 51 -7 67 -3 17 -9 48 -12 70 -2
22 -8 51 -11 65 -3 14 -7 32 -8 40 -1 8 -5 29 -9 45 -3 17 -8 41 -11 55 -11
55 -14 66 -23 91 -6 15 -9 29 -6 31 2 3 -2 24 -10 47 -9 23 -16 45 -17 49 -1
4 -3 12 -4 17 -16 59 -28 110 -28 121 0 8 -4 14 -7 14 -8 0 -35 87 -33 108 0
6 -3 12 -9 12 -5 0 -7 4 -3 9 3 5 1 12 -4 15 -7 4 -19 45 -21 71 0 3 -9 21
-20 40 -11 20 -20 44 -20 55 0 11 -5 20 -11 20 -5 0 -8 4 -4 9 3 5 1 12 -4 15
-5 3 -12 18 -16 33 -7 30 -62 154 -96 216 -11 21 -17 42 -14 47 3 6 2 10 -4
10 -5 0 -13 10 -17 23 -4 12 -9 24 -13 27 -3 3 -22 37 -42 75 -60 116 -84 160
-90 165 -4 3 -16 23 -28 45 -23 42 -114 186 -143 226 -10 13 -46 62 -80 109
-53 73 -161 211 -193 246 -5 6 -34 40 -64 75 -63 74 -386 399 -396 399 -3 0
-19 12 -35 28 -63 62 -302 252 -317 252 -4 0 -22 14 -40 30 -18 17 -36 30 -41
30 -4 0 -17 8 -28 18 -10 10 -35 27 -54 39 -19 11 -73 44 -120 72 -47 28 -90
54 -96 58 -15 12 -41 26 -140 78 -49 26 -93 51 -99 55 -5 5 -13 9 -17 10 -9 1
-100 41 -173 75 -67 32 -108 49 -120 50 -5 1 -32 11 -59 23 -27 12 -54 22 -62
22 -7 0 -15 4 -19 9 -3 5 -20 13 -38 17 -17 3 -41 10 -52 14 -11 4 -23 8 -27
9 -4 1 -23 8 -43 17 -19 8 -35 12 -35 9 0 -3 -14 2 -32 11 -17 9 -40 18 -52
19 -12 2 -31 6 -43 9 -13 3 -32 8 -43 10 -11 3 -24 8 -30 11 -5 3 -22 8 -37
11 -76 12 -93 17 -93 23 0 4 -10 8 -22 9 -36 2 -80 10 -118 20 -19 5 -38 9
-42 10 -5 1 -9 2 -10 3 -3 0 -46 7 -93 14 -11 1 -20 4 -20 5 0 2 -12 4 -110
14 -22 3 -51 7 -65 10 -14 3 -51 7 -82 8 -32 2 -58 6 -58 9 0 3 -27 4 -60 3
-33 -2 -58 1 -55 5 6 10 -538 15 -548 5z m548 -294 c0 -1 20 -3 45 -6 73 -6
142 -14 185 -20 22 -3 58 -7 80 -9 22 -1 40 -3 40 -5 0 -1 14 -4 30 -5 17 -1
44 -5 60 -8 17 -4 53 -11 80 -16 75 -15 86 -18 133 -30 23 -7 47 -9 52 -6 6 3
10 1 10 -5 0 -6 8 -10 18 -9 9 1 31 -4 47 -10 17 -7 39 -14 50 -15 11 -2 36
-8 55 -14 65 -21 145 -46 153 -48 4 -1 9 -3 12 -4 3 -1 8 -3 13 -5 9 -2 26 -9
150 -56 56 -21 107 -39 112 -39 6 0 10 -5 10 -10 0 -6 6 -10 13 -9 19 3 323
-143 407 -196 22 -14 42 -25 46 -25 3 0 26 -13 51 -30 24 -16 47 -30 52 -30 4
0 25 -13 47 -30 21 -16 43 -30 47 -30 4 0 13 -4 20 -10 31 -26 105 -78 135
-95 17 -11 32 -24 32 -29 0 -5 3 -7 6 -3 3 3 16 -5 29 -19 12 -13 27 -24 33
-24 6 0 12 -3 14 -7 2 -5 21 -21 42 -37 38 -28 75 -60 194 -164 77 -68 268
-257 332 -330 30 -34 70 -79 88 -100 19 -20 58 -69 88 -109 30 -39 61 -79 70
-87 8 -9 13 -16 9 -16 -4 0 0 -6 7 -14 23 -24 48 -56 48 -61 0 -5 78 -115 99
-141 6 -7 8 -14 5 -17 -3 -3 5 -16 18 -30 13 -14 32 -42 43 -64 11 -21 39 -70
62 -109 23 -40 53 -96 67 -126 14 -30 29 -58 33 -62 5 -4 8 -11 9 -14 0 -4 12
-32 26 -62 40 -85 86 -190 93 -210 5 -13 18 -47 27 -70 33 -79 69 -180 75
-210 2 -13 9 -30 14 -36 5 -7 9 -16 8 -20 -1 -5 0 -16 4 -24 9 -23 29 -89 32
-108 2 -9 4 -17 5 -17 2 0 9 -27 15 -60 2 -11 9 -38 15 -60 6 -22 13 -53 16
-70 3 -16 8 -37 11 -45 3 -8 7 -22 8 -30 2 -15 5 -34 25 -145 6 -33 13 -78 16
-100 3 -22 7 -58 10 -80 11 -93 14 -124 19 -195 2 -41 6 -97 9 -125 9 -96 10
-131 2 -143 -4 -7 -3 -12 2 -12 6 0 9 -8 7 -17 -2 -10 -6 -83 -9 -163 -3 -80
-7 -155 -10 -167 -3 -13 -1 -23 4 -23 5 0 5 -13 0 -30 -5 -16 -6 -30 -4 -30 3
0 2 -5 -2 -12 -4 -6 -9 -34 -11 -62 -4 -65 -11 -134 -17 -166 -3 -14 -8 -45
-11 -70 -3 -25 -9 -52 -12 -60 -3 -8 -8 -28 -9 -45 -6 -50 -12 -90 -15 -95 -1
-3 -3 -9 -4 -15 -2 -5 -4 -12 -5 -15 -1 -3 -3 -16 -6 -30 -2 -14 -7 -32 -10
-40 -4 -8 -8 -24 -9 -35 -3 -22 -12 -59 -15 -62 -2 -2 -3 -11 -4 -20 -1 -10
-4 -23 -8 -28 -3 -6 -9 -27 -13 -48 -4 -20 -11 -37 -17 -37 -5 0 -6 -5 -3 -10
4 -6 3 -19 -1 -28 -4 -9 -8 -19 -9 -22 -6 -25 -46 -136 -82 -230 -25 -63 -46
-119 -47 -125 -8 -31 -167 -360 -177 -363 -5 -2 -9 -10 -9 -18 0 -16 -29 -65
-45 -76 -5 -4 -7 -8 -3 -8 13 0 -168 -287 -248 -393 -24 -31 -44 -59 -44 -62
0 -3 -8 -13 -17 -24 -10 -10 -29 -33 -43 -51 -14 -18 -36 -46 -50 -62 -14 -15
-29 -34 -35 -41 -63 -80 -332 -357 -347 -357 -5 0 -7 -4 -3 -9 3 -6 -3 -15
-14 -21 -11 -6 -33 -22 -48 -36 -15 -14 -45 -40 -67 -58 -21 -17 -51 -43 -66
-58 -16 -16 -31 -28 -34 -28 -3 0 -15 -8 -25 -18 -26 -22 -33 -29 -116 -89
-38 -29 -82 -61 -97 -72 -14 -12 -31 -21 -36 -21 -5 0 -13 -7 -16 -16 -3 -8
-10 -13 -15 -10 -5 4 -11 3 -13 -2 -4 -11 -215 -142 -228 -142 -5 0 -10 -5
-10 -11 0 -5 -4 -8 -9 -5 -5 4 -11 3 -13 -2 -1 -4 -66 -39 -143 -77 -77 -39
-143 -74 -147 -80 -4 -5 -8 -7 -8 -2 0 4 -12 -1 -27 -10 -15 -10 -30 -17 -33
-17 -3 1 -27 -9 -55 -21 -27 -12 -72 -30 -100 -40 -27 -10 -55 -22 -61 -27 -6
-4 -19 -9 -30 -11 -10 -2 -26 -7 -34 -10 -8 -3 -37 -13 -65 -22 -27 -10 -59
-21 -70 -26 -11 -5 -54 -18 -95 -29 -41 -12 -82 -23 -90 -25 -65 -18 -189 -47
-207 -48 -13 0 -23 -4 -23 -8 0 -4 -12 -7 -27 -8 -42 -2 -86 -8 -103 -14 -16
-6 -59 -13 -125 -22 -113 -14 -133 -16 -175 -20 -25 -2 -85 -7 -135 -12 -147
-13 -643 -9 -670 6 -5 3 -32 6 -60 7 -68 2 -253 28 -360 50 -16 3 -39 7 -50 9
-49 8 -180 40 -185 44 -3 4 -12 7 -20 8 -46 6 -196 46 -235 63 -11 5 -45 16
-75 26 -30 9 -61 21 -67 27 -7 5 -13 7 -13 4 0 -3 -32 7 -71 24 -40 16 -78 29
-85 29 -8 0 -14 5 -14 10 0 6 -7 10 -16 10 -8 0 -36 10 -62 22 -26 12 -50 21
-54 20 -5 -1 -8 2 -8 8 0 5 -6 10 -13 10 -20 0 -77 30 -77 40 0 5 -7 7 -15 4
-8 -4 -15 -1 -15 7 0 7 -3 10 -6 7 -3 -4 -33 9 -66 28 -33 19 -62 34 -65 34
-3 0 -29 14 -57 32 -28 17 -71 42 -96 56 -25 13 -59 35 -77 48 -17 13 -36 24
-42 24 -6 0 -11 5 -11 10 0 6 -6 10 -13 10 -7 0 -23 9 -35 20 -12 11 -25 20
-29 20 -4 1 -24 14 -43 30 -19 17 -40 30 -48 30 -7 0 -10 5 -7 10 3 6 0 10 -8
10 -7 0 -22 8 -33 18 -11 9 -49 39 -84 67 -36 27 -70 54 -76 60 -6 5 -33 28
-60 50 -27 22 -70 61 -96 87 -27 25 -48 45 -48 43 0 -6 -179 174 -240 241
-109 121 -230 269 -230 282 0 5 -6 12 -12 15 -12 4 -142 186 -163 227 -5 11
-13 20 -17 20 -5 0 -8 4 -8 9 0 6 -13 29 -29 53 -31 47 -84 138 -104 178 -6
14 -14 27 -17 30 -14 14 -128 249 -123 254 4 3 1 6 -5 6 -7 0 -11 3 -10 8 0 4
-6 24 -16 44 -9 21 -16 41 -15 44 0 4 -4 10 -9 13 -6 3 -12 15 -14 26 -1 11
-7 23 -11 26 -4 3 -10 19 -13 34 -3 16 -9 34 -13 40 -4 5 -18 39 -30 75 -13
36 -26 72 -29 80 -3 8 -6 17 -6 20 -1 3 -5 11 -9 18 -5 6 -5 17 -2 22 3 6 1
10 -5 10 -6 0 -9 4 -5 9 3 5 1 12 -5 16 -5 3 -10 17 -10 30 0 13 -5 27 -10 30
-6 4 -10 12 -9 18 1 7 0 19 -3 27 -7 17 -37 124 -44 155 -11 50 -17 81 -18 98
0 9 -3 17 -7 17 -4 0 -9 17 -12 38 -3 20 -8 53 -12 72 -4 19 -7 46 -8 60 -1
14 -5 30 -9 36 -4 6 -6 21 -3 32 2 12 0 24 -6 27 -5 3 -8 23 -7 44 0 21 -2 42
-5 48 -4 6 -7 36 -8 67 -1 31 -5 56 -8 56 -14 0 -21 672 -8 750 4 25 7 51 7
58 -1 43 0 70 4 92 2 14 7 50 10 80 4 30 10 73 13 95 4 22 6 44 5 49 -2 4 3
14 9 22 6 8 8 14 3 14 -5 0 -2 5 6 10 8 5 10 10 4 10 -6 0 -11 7 -11 15 0 8 3
15 7 15 3 0 7 12 8 28 0 15 6 50 12 77 7 28 12 56 13 63 0 6 4 12 9 12 5 0 6
5 3 10 -4 6 -3 19 1 28 4 9 8 24 9 32 1 8 10 42 19 75 9 33 19 67 21 75 2 8 4
17 5 20 1 3 3 10 4 15 2 14 27 88 34 100 3 5 7 21 8 34 2 14 8 27 13 29 5 2 8
9 5 16 -3 8 1 20 9 27 7 8 12 20 9 27 -2 6 1 12 8 12 6 0 9 4 6 9 -3 5 2 26
11 47 9 22 17 41 18 44 1 3 7 17 13 33 19 43 30 71 31 80 0 4 12 30 26 57 14
27 26 53 26 57 2 17 161 318 170 321 5 2 7 8 3 13 -3 5 0 9 7 9 7 0 10 3 7 6
-5 5 24 58 50 89 4 6 11 17 15 25 4 8 15 27 25 41 9 15 34 54 55 88 21 34 43
61 48 61 5 0 9 5 9 11 0 11 89 132 102 137 4 2 8 8 8 13 0 11 11 24 136 168
99 114 364 385 364 373 0 -4 7 4 16 16 8 12 19 22 24 22 5 0 26 18 48 40 21
22 42 37 45 33 4 -3 7 -2 7 4 0 6 26 30 58 54 31 24 73 56 92 72 51 40 53 42
85 63 29 18 43 28 68 49 27 23 67 45 67 38 0 -5 5 0 11 10 5 9 16 17 24 17 7
0 15 4 17 8 3 8 131 88 168 106 8 4 24 12 35 19 36 23 125 67 131 66 4 0 10 3
13 8 5 8 99 57 111 58 3 0 37 16 75 34 39 18 75 34 80 36 6 1 32 12 58 23 27
12 55 22 63 22 8 0 14 4 14 8 0 5 6 9 13 9 6 1 49 15 95 32 45 17 82 27 82 23
0 -4 4 -2 8 3 6 9 33 19 147 51 11 3 27 7 35 9 8 1 22 5 30 8 32 13 106 31
123 30 9 0 17 3 17 6 0 4 10 7 23 8 12 1 33 4 47 7 53 14 153 32 220 41 14 2
25 4 25 5 0 1 14 3 30 5 17 1 53 5 80 9 66 8 126 14 205 21 35 3 65 7 66 8 3
2 549 0 549 -3z"/>
<path d="M7676 10541 c-4 -6 -11 -9 -16 -6 -5 3 -25 -9 -44 -27 -34 -32 -39
-45 -52 -143 -4 -34 -13 -88 -20 -125 -2 -14 -6 -43 -9 -64 -2 -22 -10 -43
-17 -47 -11 -7 -11 -9 0 -9 7 0 11 -4 8 -9 -8 -12 -28 -138 -28 -173 0 -16 -4
-28 -9 -28 -4 0 -6 -12 -3 -26 3 -14 0 -31 -5 -38 -6 -7 -10 -21 -10 -31 1
-20 -9 -100 -11 -100 -2 0 -10 -44 -14 -75 -2 -14 -5 -25 -6 -25 -1 0 -3 -16
-5 -35 -7 -64 -14 -115 -15 -115 -3 0 -9 -40 -15 -90 -4 -27 -9 -52 -13 -55
-4 -3 -8 -23 -9 -45 -1 -22 -5 -56 -8 -75 -4 -19 -8 -51 -9 -70 -1 -20 -5 -40
-8 -45 -3 -6 -12 -54 -19 -107 -7 -54 -15 -98 -18 -98 -4 0 -6 -18 -5 -40 0
-22 -3 -40 -7 -40 -4 0 -7 -8 -5 -17 2 -10 -5 -55 -14 -101 -9 -46 -12 -86 -8
-88 5 -3 5 -11 0 -17 -9 -11 -19 -57 -28 -122 -1 -11 -5 -36 -8 -55 -4 -19
-11 -61 -17 -93 -5 -32 -12 -74 -15 -94 -4 -35 -12 -81 -19 -113 -2 -8 -4 -19
-5 -25 0 -5 -7 -1 -15 9 -8 10 -12 23 -9 27 3 5 1 9 -4 9 -8 0 -84 111 -92
135 -2 6 -12 19 -22 29 -10 11 -18 26 -18 33 0 7 -4 13 -9 13 -5 0 -11 8 -14
18 -6 18 -38 74 -48 82 -3 3 -38 57 -77 120 -39 63 -76 120 -82 127 -5 7 -15
24 -22 38 -6 14 -15 25 -20 25 -4 0 -8 4 -8 10 0 9 -107 180 -130 207 -5 7
-10 17 -10 23 0 5 -4 10 -10 10 -5 0 -10 4 -10 9 0 9 -78 140 -90 151 -9 9
-41 65 -47 83 -3 9 -9 17 -14 17 -5 0 -9 5 -9 10 0 6 -5 16 -10 23 -6 7 -49
73 -96 147 -48 74 -91 138 -96 141 -5 3 -9 9 -9 12 1 11 -34 67 -41 67 -5 0
-8 4 -8 10 0 5 -36 66 -80 136 -44 69 -80 130 -80 135 0 5 -4 9 -10 9 -5 0
-10 5 -10 11 0 6 -13 30 -30 54 -16 24 -30 48 -30 54 0 6 -4 11 -8 11 -5 0
-15 12 -23 28 -8 15 -38 62 -66 105 -29 42 -49 77 -45 77 4 0 2 4 -4 8 -15 10
-74 99 -74 111 0 6 -5 11 -12 11 -6 0 -8 3 -5 7 11 10 -43 33 -79 33 -19 0
-34 -5 -34 -11 0 -5 -4 -8 -10 -4 -5 3 -16 -6 -25 -19 -15 -22 -16 -67 -11
-432 3 -224 8 -409 10 -412 3 -2 1 -15 -4 -28 -5 -13 -6 -24 -2 -24 4 0 8 -82
8 -183 4 -536 10 -827 18 -827 5 0 3 -7 -4 -15 -8 -10 -9 -15 -1 -15 7 0 8 -8
3 -22 -7 -20 -8 -43 -2 -50 6 -8 4 -90 -2 -95 -5 -2 -5 -9 -2 -15 6 -10 9
-155 18 -896 2 -200 7 -366 10 -369 3 -4 1 -12 -5 -20 -6 -7 -8 -13 -3 -13 9
0 13 -270 17 -967 1 -172 4 -313 7 -313 8 0 5 -124 -3 -137 -5 -7 -4 -13 0
-13 5 0 9 -105 11 -232 1 -128 5 -343 8 -478 9 -404 4 -369 56 -396 22 -12 28
-12 22 -2 -6 11 -5 11 8 0 11 -8 23 -10 39 -3 41 15 57 42 55 89 -1 24 1 45 6
48 4 3 3 15 -2 28 -5 15 -5 27 3 35 6 6 7 11 1 11 -5 0 -10 9 -11 20 -1 11 4
20 10 20 8 0 8 3 2 8 -6 4 -11 91 -12 217 -4 388 -23 1572 -29 1835 -2 107 -4
200 -4 205 0 6 1 27 3 48 2 20 -1 37 -6 37 -5 0 -5 6 1 13 6 7 7 18 3 26 -5 8
-5 27 -1 42 5 18 5 29 -1 29 -6 0 -5 8 1 20 6 11 7 20 3 20 -10 0 -10 41 1 58
4 7 4 12 -1 12 -4 0 -9 102 -10 228 -3 357 -13 1013 -17 1060 -2 23 1 42 6 42
5 0 6 5 2 12 -5 7 -9 94 -10 193 -6 446 -15 966 -17 1025 -2 36 1 71 6 78 5 6
6 12 1 12 -5 0 -10 25 -10 55 -1 30 2 55 6 55 4 0 15 -15 24 -34 8 -18 22 -39
31 -46 8 -7 15 -16 15 -21 0 -4 13 -27 28 -51 16 -24 56 -86 90 -138 34 -52
66 -100 72 -107 5 -7 10 -15 10 -18 0 -9 54 -89 65 -97 7 -5 7 -8 0 -8 -6 0
-6 -3 0 -8 14 -9 95 -140 95 -153 0 -5 4 -9 9 -9 5 0 14 -13 21 -30 7 -16 17
-30 22 -30 5 0 6 -4 3 -10 -3 -5 -1 -10 5 -10 6 0 9 -4 6 -9 -4 -5 -2 -11 2
-13 12 -4 72 -95 72 -107 0 -6 5 -11 10 -11 6 0 10 -7 10 -15 0 -7 8 -19 18
-24 9 -6 13 -11 9 -11 -8 0 69 -120 97 -152 9 -10 16 -20 16 -23 0 -5 153
-252 262 -423 10 -15 23 -37 29 -49 7 -13 16 -23 21 -23 4 0 8 -5 8 -11 0 -5
18 -37 40 -69 22 -32 40 -64 40 -69 0 -6 4 -11 9 -11 5 0 14 -13 21 -30 7 -16
16 -30 21 -30 5 0 9 -4 9 -9 0 -5 18 -37 40 -70 22 -33 40 -62 40 -65 0 -5 39
-66 57 -91 5 -6 17 -26 27 -45 11 -19 22 -37 25 -40 3 -3 12 -15 19 -27 6 -13
17 -31 24 -42 7 -11 8 -26 3 -37 -5 -11 -9 -30 -11 -44 -1 -14 -3 -25 -4 -25
-1 0 -3 -16 -4 -35 -1 -19 -5 -40 -9 -46 -4 -7 -9 -36 -12 -65 -2 -30 -7 -65
-11 -79 -3 -14 -7 -41 -9 -60 -2 -19 -4 -35 -5 -35 -1 0 -3 -11 -6 -25 -2 -14
-8 -52 -14 -85 -5 -33 -12 -78 -16 -100 -3 -22 -8 -49 -9 -60 -2 -11 -6 -36
-9 -55 -3 -19 -9 -51 -12 -70 -3 -19 -8 -53 -10 -75 -3 -22 -11 -69 -19 -104
-7 -35 -11 -70 -8 -77 2 -6 0 -15 -5 -18 -5 -3 -8 -17 -7 -31 2 -14 0 -25 -4
-25 -4 0 -7 -15 -8 -32 -4 -75 -8 -108 -14 -108 -3 0 -6 -18 -7 -41 -1 -22 -5
-46 -8 -51 -4 -6 -8 -27 -10 -47 -2 -20 -6 -49 -9 -66 -19 -111 -24 -158 -19
-166 3 -5 0 -9 -6 -9 -7 0 -10 -7 -7 -15 4 -8 2 -17 -2 -19 -5 -3 -6 -17 -3
-31 2 -14 0 -25 -5 -25 -5 0 -9 -15 -10 -32 -1 -38 -6 -78 -28 -198 -8 -47
-17 -101 -19 -120 -3 -19 -8 -48 -11 -65 -4 -16 -8 -43 -10 -60 -2 -16 -6 -41
-9 -55 -3 -14 -8 -45 -11 -69 -3 -25 -8 -54 -11 -65 -2 -12 -7 -37 -9 -56 -3
-19 -8 -51 -11 -70 -3 -19 -7 -43 -7 -52 -1 -10 -6 -18 -11 -18 -6 0 -5 -5 2
-12 7 -7 8 -17 2 -27 -5 -10 -11 -38 -14 -64 -3 -26 -8 -57 -11 -69 -5 -22
-12 -64 -19 -118 -2 -14 -11 -70 -21 -125 -10 -55 -19 -111 -21 -125 -2 -14
-6 -41 -9 -60 -11 -61 -11 -90 -3 -92 5 -2 10 -13 11 -26 0 -12 9 -25 19 -28
10 -3 18 -9 18 -14 0 -5 21 -7 47 -6 72 4 99 52 119 206 5 40 14 101 20 134
15 78 25 143 26 169 1 15 4 27 7 27 3 0 6 15 7 33 1 17 4 46 7 62 3 17 9 50
12 75 3 25 8 52 10 60 2 8 6 33 10 55 3 22 8 54 12 70 3 17 6 45 7 63 0 17 3
32 6 32 3 0 6 10 7 23 0 12 3 38 7 57 3 19 10 62 16 95 6 33 12 74 14 90 2 17
7 48 11 70 4 22 8 51 10 65 2 14 6 41 10 60 3 19 8 49 10 65 3 17 8 46 11 65
3 19 7 46 9 60 2 14 6 36 9 50 4 14 9 47 11 73 3 27 7 52 9 56 3 3 8 34 11 66
4 33 11 69 14 80 4 11 7 27 6 35 0 8 4 18 10 22 6 5 5 8 -3 8 -7 0 -10 4 -7
10 9 14 20 78 41 220 2 19 7 46 9 60 9 47 17 94 20 124 2 17 4 31 5 31 2 0 6
24 15 85 4 30 9 64 12 75 3 11 5 32 5 48 0 15 3 27 7 27 3 0 7 12 7 28 1 15 4
43 7 62 3 19 9 58 12 85 4 28 9 57 12 65 3 8 7 29 9 45 4 41 11 73 20 87 5 7
3 8 -5 3 -10 -6 -11 -3 -2 12 6 11 7 24 3 29 -4 5 2 1 13 -8 11 -9 29 -34 40
-55 11 -21 22 -40 25 -43 13 -13 60 -91 60 -100 0 -5 4 -10 9 -10 5 0 13 -10
17 -22 3 -12 10 -26 15 -32 19 -23 69 -101 69 -109 0 -4 9 -17 20 -29 11 -12
20 -28 20 -35 0 -7 5 -13 10 -13 6 0 10 -7 10 -15 0 -8 5 -15 10 -15 6 0 10
-7 10 -15 0 -8 5 -15 10 -15 6 0 10 -5 10 -10 0 -6 27 -51 60 -101 33 -50 60
-95 60 -100 0 -5 5 -9 10 -9 6 0 10 -6 10 -14 0 -8 3 -16 8 -18 10 -4 92 -137
92 -149 0 -5 4 -9 8 -9 5 0 15 -12 23 -27 8 -16 53 -90 102 -166 48 -76 87
-140 87 -143 0 -3 5 -10 10 -17 16 -19 100 -147 100 -153 0 -3 5 -10 11 -17 5
-7 29 -41 51 -77 23 -36 54 -84 70 -108 15 -24 28 -45 28 -47 0 -7 124 -200
133 -206 5 -3 8 -8 6 -10 -1 -2 11 -24 27 -48 16 -24 34 -51 39 -60 6 -9 22
-35 38 -58 15 -23 27 -44 27 -48 0 -4 6 -13 13 -20 28 -33 37 -45 37 -53 0 -5
11 -22 24 -37 14 -16 23 -32 20 -37 -3 -4 0 -8 5 -8 6 0 11 -7 11 -15 0 -8 4
-15 9 -15 5 0 11 -8 15 -17 3 -10 19 -38 35 -63 17 -25 44 -70 62 -100 18 -30
36 -56 41 -58 4 -2 8 -10 8 -18 0 -8 3 -14 8 -14 7 0 13 -10 42 -66 8 -16 17
-31 20 -34 3 -3 20 -27 38 -55 17 -27 36 -55 42 -62 5 -7 15 -24 22 -38 6 -14
15 -25 20 -25 4 0 8 -4 8 -9 0 -5 17 -36 38 -68 21 -32 46 -75 57 -95 30 -58
85 -78 147 -53 27 11 40 59 36 134 -2 43 1 71 7 71 7 0 7 3 0 8 -6 4 -10 64
-10 144 0 76 -4 138 -8 138 -4 0 -4 8 1 18 9 19 8 54 -2 71 -4 6 -2 11 4 11 8
0 8 6 0 20 -8 14 -8 20 0 20 6 0 8 5 4 11 -4 6 -8 102 -9 214 -1 111 -5 207
-9 213 -4 7 -4 12 1 12 4 0 7 24 6 53 -2 28 -4 131 -6 227 -2 97 -6 181 -10
187 -4 6 -2 13 4 15 7 2 7 12 0 30 -6 15 -7 29 -2 32 8 5 5 70 -3 93 -3 7 -1
13 4 13 5 0 6 9 1 22 -4 12 -5 37 -1 55 5 18 5 33 1 33 -3 0 -7 84 -8 188 -6
595 -11 831 -17 841 -4 6 -2 11 5 11 7 0 8 5 3 13 -11 15 -11 38 -1 55 5 6 4
12 0 12 -13 0 -11 94 2 102 6 5 6 8 0 8 -7 0 -11 67 -12 183 -3 316 -12 618
-18 627 -4 6 -1 10 5 10 8 0 8 6 0 20 -8 14 -8 20 0 20 7 0 8 6 1 18 -6 10 -6
24 -1 32 5 8 7 17 4 22 -6 9 -14 356 -17 700 -1 148 -6 268 -10 268 -5 0 -5 5
-1 12 11 17 11 58 1 65 -4 2 -3 11 4 19 6 8 8 14 3 14 -5 0 -10 129 -10 288
-2 395 -11 600 -26 616 -27 26 -75 38 -100 26 -57 -30 -57 -30 -57 -206 0 -90
-2 -168 -6 -174 -3 -5 -3 -10 2 -10 4 0 8 -52 8 -116 0 -63 2 -148 5 -187 4
-40 2 -74 -2 -75 -5 -2 -5 -8 -2 -14 11 -17 11 -142 1 -155 -5 -7 -6 -13 -1
-13 9 0 14 -225 17 -767 1 -161 5 -293 8 -293 9 0 4 -55 -6 -62 -7 -5 -7 -8 0
-8 7 0 11 -101 12 -285 1 -156 4 -289 8 -295 3 -5 2 -10 -3 -10 -6 0 -7 -14
-3 -32 4 -18 7 -75 6 -125 0 -51 3 -93 7 -93 4 0 3 -13 -2 -29 -5 -19 -4 -33
3 -40 7 -7 7 -11 1 -11 -6 0 -8 -21 -4 -56 3 -30 3 -57 -2 -60 -4 -3 -3 -14 2
-25 6 -10 7 -19 3 -19 -4 0 -7 -19 -6 -42 1 -24 2 -43 3 -43 0 0 3 -92 5 -205
2 -113 4 -205 5 -205 0 0 2 -125 3 -277 1 -169 6 -278 11 -278 6 0 5 -5 -2
-12 -8 -8 -9 -15 -1 -25 9 -9 8 -13 0 -13 -9 0 -9 -5 0 -21 8 -16 8 -20 -1
-14 -9 6 -9 3 -2 -12 7 -12 7 -25 1 -36 -6 -9 -6 -17 -2 -17 4 0 8 -16 8 -35
0 -19 -4 -35 -10 -35 -7 0 -7 -3 0 -8 13 -9 13 -115 0 -124 -7 -5 -7 -8 0 -8
13 0 14 -133 0 -142 -7 -5 -6 -8 1 -8 8 0 11 -21 10 -60 -1 -34 3 -62 9 -64 6
-3 5 -5 -2 -5 -7 -1 -10 -7 -8 -13 8 -20 13 -308 6 -313 -4 -2 -7 4 -8 13 -1
18 -31 137 -40 162 -3 8 -7 20 -8 25 -1 6 -3 12 -4 15 -6 12 -13 47 -15 68 0
12 -5 22 -9 22 -5 0 -7 8 -6 18 2 9 -2 27 -9 40 -7 12 -10 22 -6 22 3 0 2 6
-3 13 -6 6 -9 20 -8 30 2 9 -2 17 -8 17 -5 0 -8 3 -4 6 3 3 2 17 -3 30 -6 14
-12 35 -15 47 -2 12 -14 56 -25 97 -31 109 -32 113 -33 135 -1 11 -6 23 -10
26 -4 3 -9 16 -10 27 -1 12 -4 22 -7 22 -3 0 -6 10 -7 23 -3 24 -7 44 -16 67
-5 13 -11 38 -24 90 -2 8 -4 23 -5 33 -1 9 -5 17 -8 17 -4 0 -7 6 -8 13 -3 27
-11 64 -22 97 -6 19 -14 46 -17 60 -7 33 -9 42 -15 60 -13 38 -27 90 -38 140
-7 30 -17 61 -22 67 -6 7 -8 20 -4 28 3 8 2 15 -3 15 -4 0 -8 6 -9 13 -2 20
-13 71 -19 87 -3 8 -7 20 -9 27 -1 6 -7 27 -13 45 -6 18 -12 44 -15 58 -3 14
-14 55 -25 93 -11 37 -17 67 -14 67 3 0 1 6 -4 13 -6 6 -13 29 -17 50 -4 20
-11 37 -16 37 -5 0 -7 7 -4 15 4 8 3 23 -1 33 -5 9 -10 26 -12 37 -6 25 -9 36
-15 55 -20 59 -42 146 -38 152 1 2 -5 21 -14 43 -14 35 -31 99 -40 145 -2 8
-6 22 -9 30 -4 8 -8 24 -10 35 -2 11 -6 27 -9 35 -3 8 -11 33 -17 55 -6 22
-17 64 -25 93 -8 29 -15 54 -16 57 0 3 0 6 -1 8 0 1 -3 13 -5 27 -3 13 -9 29
-14 34 -4 4 -6 15 -3 22 3 8 0 14 -6 14 -6 0 -8 7 -5 15 3 8 2 20 -2 27 -5 7
-10 22 -12 33 -4 24 -7 35 -14 55 -6 17 -28 95 -33 119 -2 9 -14 52 -25 96
-12 44 -23 85 -25 90 -1 6 -5 18 -9 27 -4 9 -5 22 -1 28 3 5 1 10 -4 10 -6 0
-11 10 -11 23 0 13 -5 28 -12 35 -7 7 -9 12 -6 12 4 0 -2 30 -12 66 -11 37
-17 71 -14 75 3 5 1 9 -4 9 -9 0 -13 15 -26 86 -2 12 -9 31 -15 43 -7 11 -9
21 -5 21 3 0 1 6 -5 13 -6 8 -8 16 -5 20 3 3 1 14 -5 25 -5 10 -12 30 -14 43
-3 13 -11 44 -18 69 -15 53 -19 68 -25 95 -5 26 -42 159 -45 163 -1 1 -2 5 -3
10 -1 4 -4 12 -7 17 -4 6 -5 20 -4 33 1 12 -1 22 -4 22 -4 0 -12 24 -19 53
-17 65 -16 63 -31 117 -7 25 -15 56 -18 69 -2 13 -8 32 -13 42 -6 10 -10 28
-10 42 0 13 -3 27 -7 31 -7 6 -12 24 -17 56 -1 9 -5 21 -10 28 -4 6 -5 16 -2
21 3 5 -1 14 -9 21 -7 6 -12 17 -9 24 3 7 -1 26 -7 42 -7 16 -14 38 -15 49 -2
11 -11 43 -20 72 -8 29 -13 57 -9 63 3 5 1 10 -4 10 -6 0 -11 11 -11 24 0 14
-5 28 -11 31 -5 4 -8 12 -6 18 5 15 -26 79 -46 96 -8 6 -28 13 -43 14 -16 1
-32 6 -35 11 -4 4 -10 3 -13 -3z m53 -549 c1 -37 6 -67 13 -72 4 -3 9 -19 12
-35 2 -17 5 -32 6 -35 1 -3 2 -8 1 -12 0 -5 3 -8 8 -8 5 0 8 -8 6 -17 -1 -10
1 -22 5 -28 5 -5 10 -23 11 -40 2 -16 7 -33 11 -36 5 -3 10 -18 12 -35 2 -16
9 -44 15 -62 5 -18 10 -33 10 -35 0 -1 2 -9 5 -17 4 -13 12 -46 23 -90 2 -8 4
-24 6 -35 1 -11 5 -22 9 -25 4 -3 9 -20 13 -37 3 -18 9 -43 15 -57 5 -15 6
-26 3 -26 -4 0 -2 -5 5 -12 7 -7 12 -24 12 -38 0 -15 3 -30 7 -34 6 -6 10 -17
17 -56 1 -8 5 -22 8 -30 6 -14 32 -109 44 -155 3 -11 6 -24 8 -30 2 -5 6 -27
11 -47 4 -21 11 -38 17 -38 5 0 6 -5 3 -10 -4 -6 -3 -19 1 -28 4 -9 8 -24 9
-32 2 -8 15 -58 30 -110 15 -52 28 -102 30 -110 2 -8 12 -42 21 -75 9 -33 18
-67 19 -75 2 -8 4 -15 5 -15 1 0 3 -7 5 -15 5 -21 13 -49 24 -90 5 -19 17 -64
26 -100 9 -36 19 -72 23 -80 3 -8 7 -22 8 -30 2 -8 10 -40 19 -70 15 -53 22
-77 30 -110 2 -8 4 -15 6 -15 1 0 3 -9 5 -20 1 -11 10 -45 19 -75 9 -30 17
-64 18 -75 0 -11 4 -22 9 -26 4 -3 9 -18 12 -35 2 -16 6 -36 9 -44 7 -17 30
-99 33 -115 1 -5 3 -12 4 -15 1 -3 3 -12 5 -20 2 -8 8 -30 14 -47 5 -18 7 -33
4 -33 -3 0 -1 -6 5 -13 6 -7 13 -26 16 -42 4 -17 8 -43 11 -59 3 -16 10 -37
15 -47 6 -10 10 -27 10 -38 0 -12 3 -21 8 -21 4 0 8 -10 9 -23 3 -34 8 -51 17
-65 4 -7 5 -16 2 -19 -3 -3 -1 -12 4 -19 6 -6 10 -16 9 -20 -1 -5 0 -16 3 -24
5 -13 51 -175 54 -190 3 -19 17 -68 21 -80 8 -20 12 -40 15 -67 1 -13 6 -23
10 -23 4 0 8 -12 8 -26 0 -14 4 -33 9 -43 6 -10 11 -28 13 -42 2 -13 7 -30 11
-36 5 -7 5 -17 2 -23 -3 -5 -1 -10 5 -10 6 0 8 -5 5 -10 -4 -6 -2 -16 3 -23 6
-7 12 -26 15 -42 2 -17 7 -37 10 -45 4 -8 8 -27 11 -42 2 -14 9 -35 15 -46 6
-11 8 -22 4 -25 -3 -4 0 -13 7 -22 7 -9 10 -18 7 -22 -4 -3 -2 -12 4 -19 6 -8
9 -21 5 -29 -3 -8 -2 -15 3 -15 5 0 11 -12 14 -27 6 -32 14 -66 18 -73 1 -3 3
-9 4 -15 2 -5 4 -12 5 -15 3 -9 10 -45 13 -65 1 -11 5 -22 9 -25 4 -3 9 -17
12 -30 3 -14 8 -36 11 -50 3 -14 7 -30 9 -37 1 -7 5 -16 9 -19 4 -4 7 -19 7
-34 0 -15 3 -30 7 -34 4 -3 8 -14 9 -24 4 -28 9 -46 16 -57 8 -13 33 -126 31
-142 0 -7 3 -13 8 -13 5 0 9 -11 9 -24 0 -14 5 -28 11 -32 6 -3 9 -15 6 -25
-3 -10 -1 -22 4 -25 5 -3 7 -9 4 -14 -3 -5 -1 -11 5 -15 5 -3 10 -19 10 -34 0
-15 3 -31 7 -35 6 -6 9 -20 15 -63 1 -7 5 -13 10 -13 5 0 6 -5 3 -10 -4 -6
-19 8 -34 32 -15 24 -53 82 -84 130 -32 48 -57 92 -57 97 0 5 -3 11 -7 13 -5
2 -26 32 -47 68 -22 36 -59 95 -83 131 -23 37 -43 69 -43 73 0 3 -7 14 -15 23
-8 10 -16 23 -17 28 -1 6 -7 16 -12 23 -6 7 -15 18 -21 25 -5 7 -16 24 -24 40
-8 15 -18 27 -23 27 -4 0 -8 5 -8 10 0 6 -27 51 -60 100 -33 49 -60 91 -60 94
0 2 -18 32 -40 65 -22 33 -40 65 -40 71 0 5 -4 10 -10 10 -5 0 -10 5 -10 10 0
6 -20 41 -44 78 -123 189 -165 258 -165 266 0 5 -4 12 -10 15 -13 9 -161 239
-161 252 0 5 -4 9 -10 9 -5 0 -10 7 -10 15 0 8 -4 15 -10 15 -5 0 -10 5 -10
11 0 6 -13 30 -30 54 -16 24 -30 48 -30 54 0 6 -3 11 -8 11 -7 0 -13 10 -42
66 -8 16 -17 31 -20 34 -10 8 -70 98 -70 104 0 9 -64 101 -72 104 -4 2 -8 8
-8 13 0 6 -22 43 -50 84 -27 41 -50 79 -50 85 0 5 -3 10 -8 10 -4 0 -12 9 -17
19 -31 60 -88 151 -100 161 -8 7 -15 16 -15 21 0 4 -14 30 -31 58 -21 34 -29
56 -24 68 4 10 9 36 11 58 4 45 12 100 14 100 2 0 5 18 15 95 9 69 10 74 16
85 3 6 5 22 4 38 -1 15 1 27 4 27 3 0 7 17 8 38 3 35 9 77 13 77 1 0 4 20 6
45 2 25 7 56 11 70 4 14 8 36 9 50 2 14 5 44 8 67 3 23 10 51 16 63 7 14 8 20
0 20 -7 0 -7 6 0 21 7 11 9 27 6 35 -3 8 -2 14 2 14 5 0 9 17 10 39 2 21 5 49
8 62 10 48 13 65 18 104 2 22 7 51 10 65 3 14 8 43 10 65 3 22 5 40 6 40 3 0
11 42 14 75 2 19 4 35 6 35 1 0 3 11 4 25 4 35 16 112 21 130 2 8 7 35 10 60
3 25 8 59 12 75 3 17 7 44 9 60 1 17 3 30 4 30 3 0 11 58 13 97 1 21 5 38 8
38 3 0 6 6 6 13 0 6 3 30 7 52 4 22 9 58 12 79 2 22 8 56 13 75 4 20 7 44 5
54 -2 14 1 16 11 7 8 -6 14 -19 14 -28z"/>
</g>
</svg>
